<?xml version="1.0" encoding="UTF-8"?>
<svg id="Capa_1" xmlns="http://www.w3.org/2000/svg" version="1.1" xmlns:xlink="http://www.w3.org/1999/xlink" viewBox="0 0 315.4 85.9">
  <!-- Generator: Adobe Illustrator 29.3.1, SVG Export Plug-In . SVG Version: 2.1.0 Build 151)  -->
  <defs>
    <style>
      .st0 {
        fill: #0081fa;
      }

      .st1 {
        fill: #e2e7f3;
      }

      .st2 {
        isolation: isolate;
      }
    </style>
  </defs>
  <g class="st2">
    <path class="st1" d="M72,30.1h18.6v4.7h-9.3v18.6l-4.7,4.7v-23.3h-9.3l4.7-4.7Z"/>
    <path class="st1" d="M102.2,34.8c-3.1,0-4.7,1.6-4.7,4.7v4.7c0,3.1,1.6,4.7,4.7,4.7h14v4.7h-14c-6.2,0-9.3-3.1-9.3-9.3v-4.7c0-6.2,3.1-9.3,9.3-9.3h14v4.7h-14ZM116.2,44.1h-14l4.7-4.7h9.3v4.7Z"/>
    <path class="st1" d="M127.8,34.8c-3.1,0-4.7,1.6-4.7,4.7v4.7c0,3.1,1.6,4.7,4.7,4.7h14v4.7h-14c-6.2,0-9.3-3.1-9.3-9.3v-4.7c0-6.2,3.1-9.3,9.3-9.3h14l-4.7,4.7h-9.3Z"/>
    <path class="st1" d="M162.8,39.5c0-3.1-1.6-4.7-4.7-4.7h-4.7c-3.1,0-4.7,1.6-4.7,4.7v14h-4.7v-14c0-6.2,3.1-9.3,9.3-9.3h4.7c6.2,0,9.3,3.1,9.3,9.3v14h-4.7v-14Z"/>
    <path class="st1" d="M193,39.5v4.7c0,6.2-3.1,9.3-9.3,9.3h-4.7c-6.2,0-9.3-3.1-9.3-9.3v-4.7c0-6.2,3.1-9.3,9.3-9.3h4.7c6.2,0,9.3,3.1,9.3,9.3ZM174.4,39.5v4.7c0,3.1,1.6,4.7,4.7,4.7h4.7c3.1,0,4.7-1.6,4.7-4.7v-4.7c0-3.1-1.6-4.7-4.7-4.7h-4.7c-3.1,0-4.7,1.6-4.7,4.7Z"/>
    <path class="st1" d="M204.7,34.8c-3.1,0-4.7,1.6-4.7,4.7v4.7c0,3.1,1.6,4.7,4.7,4.7h14v4.7h-14c-6.2,0-9.3-3.1-9.3-9.3v-4.7c0-6.2,3.1-9.3,9.3-9.3h14l-4.7,4.7h-9.3Z"/>
    <path class="st1" d="M225.6,53.4h-4.7v-23.3h4.7v23.3ZM234.9,39.5h4.7v-9.3h4.7v23.3h-4.7v-9.3h-9.3l4.7-4.7Z"/>
    <path class="st1" d="M251.2,30.1v23.3h-4.7v-23.3h4.7Z"/>
    <path class="st1" d="M272.2,53.4h-9.3c-6.2,0-9.3-3.1-9.3-9.3v-14h4.7v14c0,3.1,1.6,4.7,4.7,4.7h14l-4.7,4.7Z"/>
    <path class="st1" d="M288.5,34.8c-3.1,0-4.7,1.6-4.7,4.7v4.7c0,3.1,1.6,4.7,4.7,4.7h14v4.7h-14c-6.2,0-9.3-3.1-9.3-9.3v-4.7c0-6.2,3.1-9.3,9.3-9.3h14v4.7h-14ZM302.5,44.1h-14l4.7-4.7h9.3v4.7Z"/>
  </g>
  <path class="st0" d="M27.9,28.3h29.6v6.9h-12.2v11.4c1.5-1.2,3.6-1.8,6.4-1.8h14l-4.7,4.7h-9.3c-3.1,0-4.7,1.6-4.7,4.7v4.7c0,3.1,1.6,4.7,4.7,4.7h1.7c7.6-4.3,12.8-12.4,12.8-21.8,0-13.8-11.2-25-25-25s-25,11.2-25,25,9,22.6,20.8,24.6v-31.1h-15.2l6-6.9Z"/>
</svg>