<svg width="30" height="30" viewBox="0 0 30 30" fill="none" xmlns="http://www.w3.org/2000/svg">
<path d="M0 22.1512V7.84884C0 3.52941 3.52941 0 7.84884 0H22.1512C26.4706 0 30 3.52941 30 7.84884V22.1512C30 26.4706 26.4706 30 22.1512 30H17.3393L14.8256 29.3844L12.6607 30H7.84884C3.52941 30 0 26.4706 0 22.1512Z" fill="#5B00CC"/>
<path d="M20.8379 19.8324L21.5048 15.4925H17.3393V12.6813C17.3393 11.4911 17.9241 10.342 19.7811 10.342H21.6689V6.64843C21.6689 6.64843 19.9555 6.35089 18.3139 6.35089C14.8871 6.35089 12.6505 8.42339 12.6505 12.1888V15.4925H8.84404V19.8324H12.6505V30H17.3393V19.8324H20.8379Z" fill="white"/>
</svg>
