<svg width="30" height="30" viewBox="0 0 30 30" fill="none" xmlns="http://www.w3.org/2000/svg">
<g clip-path="url(#clip0)">
<path d="M0 22.1512V7.84884C0 3.52941 3.52941 0 7.84884 0H22.1512C26.4706 0 30 3.52941 30 7.84884V22.1512C30 26.4706 26.4706 30 22.1512 30H7.84884C3.52941 30 0 26.4706 0 22.1512Z" fill="#5B00CC"/>
<path d="M19.658 9.34678C19.0937 9.34678 18.632 9.80848 18.632 10.383C18.632 10.9576 19.0937 11.4193 19.658 11.4193C20.2326 11.4193 20.6943 10.9576 20.6943 10.383C20.684 9.80848 20.2326 9.34678 19.658 9.34678Z" fill="white"/>
<path d="M15.0719 10.6703C12.6814 10.6703 10.7422 12.6094 10.7422 15C10.7422 17.3906 12.6814 19.3297 15.0719 19.3297C17.4625 19.3297 19.4016 17.3906 19.4016 15C19.4016 12.6094 17.4625 10.6703 15.0719 10.6703ZM15.0719 17.7804C13.5432 17.7804 12.3017 16.539 12.3017 15.0103C12.3017 13.4815 13.5432 12.2401 15.0719 12.2401C16.6006 12.2401 17.8421 13.4815 17.8421 15.0103C17.8421 16.539 16.6006 17.7804 15.0719 17.7804Z" fill="white"/>
<path d="M18.5089 23.7927H11.4912C8.57734 23.7927 6.2073 21.4227 6.2073 18.5089V11.4911C6.2073 8.57729 8.57734 6.20725 11.4912 6.20725H18.5089C21.4228 6.20725 23.7928 8.57729 23.7928 11.4911V18.5089C23.7928 21.4227 21.4228 23.7927 18.5089 23.7927ZM11.4912 7.8591C9.49047 7.8591 7.85915 9.49042 7.85915 11.4911V18.5089C7.85915 20.5096 9.49047 22.1409 11.4912 22.1409H18.5089C20.5096 22.1409 22.141 20.5096 22.141 18.5089V11.4911C22.141 9.49042 20.5096 7.8591 18.5089 7.8591H11.4912Z" fill="white"/>
</g>
<defs>
<clipPath id="clip0">
<rect width="29.24" height="29.24" fill="white" transform="scale(1.02599)"/>
</clipPath>
</defs>
</svg>
