<svg width="30" height="30" viewBox="0 0 30 30" fill="none" xmlns="http://www.w3.org/2000/svg">
<g clip-path="url(#clip0)">
<path d="M0 22.1512V7.84884C0 3.52941 3.52941 0 7.84884 0H22.1512C26.4706 0 30 3.52941 30 7.84884V22.1512C30 26.4706 26.4706 30 22.1512 30H7.84884C3.52941 30 0 26.4706 0 22.1512Z" fill="#5B00CC"/>
<path d="M23.29 9.85978C22.7667 10.0958 22.1921 10.2394 21.6381 10.3317C21.9049 10.2907 22.2947 9.80848 22.4486 9.61354C22.6846 9.31601 22.8898 8.97743 23.0027 8.60807C23.0129 8.57729 23.0232 8.54651 23.0027 8.52599C22.9616 8.51573 22.9411 8.51573 22.9103 8.53625C22.2845 8.87483 21.6381 9.11081 20.9507 9.28523C20.8891 9.29549 20.8481 9.28523 20.8173 9.25445C20.7558 9.19289 20.7045 9.13133 20.6429 9.08003C20.3556 8.83379 20.0478 8.63885 19.6887 8.49521C19.227 8.31053 18.7243 8.22845 18.2318 8.25923C17.7496 8.29001 17.2776 8.42339 16.8467 8.64911C16.4158 8.86457 16.0362 9.18263 15.7284 9.55198C15.4103 9.94186 15.1846 10.4036 15.0615 10.8858C14.9486 11.3577 14.9589 11.8194 15.0307 12.2914C15.041 12.3735 15.0307 12.3837 14.9589 12.3735C12.2605 11.9733 10.0341 11.0089 8.21814 8.94665C8.14632 8.85431 8.10528 8.85431 8.03346 8.95691C7.24345 10.1471 7.62306 12.0554 8.61828 12.9993C8.75166 13.1224 8.88503 13.2456 9.02867 13.3687C8.97737 13.3789 8.32074 13.3071 7.72566 12.9993C7.64358 12.948 7.60254 12.9788 7.60254 13.0711C7.59228 13.2045 7.60254 13.3174 7.62306 13.461C7.77696 14.6614 8.60802 15.7798 9.75713 16.2209C9.89051 16.2825 10.0444 16.3235 10.188 16.3543C9.93155 16.4159 9.65453 16.4569 8.91581 16.3953C8.82347 16.3748 8.78244 16.4261 8.82348 16.5082C9.38777 18.0369 10.5984 18.4884 11.5013 18.7551C11.6244 18.7757 11.7476 18.7757 11.8707 18.8064C11.8604 18.8167 11.8604 18.8167 11.8502 18.8269C11.5526 19.2886 10.5061 19.6272 10.0239 19.8016C9.14153 20.1094 8.1771 20.2531 7.24345 20.1607C7.08955 20.1402 7.05877 20.1402 7.01773 20.1607C6.97669 20.1813 7.00747 20.2223 7.05877 20.2633C7.24345 20.3865 7.43839 20.4993 7.63332 20.6019C8.2284 20.92 8.84399 21.1662 9.49037 21.3406C12.8351 22.264 16.5902 21.5869 19.1039 19.0937C21.0738 17.1341 21.7612 14.4357 21.7612 11.7373C21.7612 11.6347 21.8844 11.5732 21.9562 11.5219C22.4692 11.132 22.8796 10.6806 23.2592 10.1573C23.3413 10.0445 23.3413 9.94186 23.3413 9.90082C23.3413 9.89056 23.3413 9.89056 23.3413 9.89056C23.3618 9.81874 23.3515 9.829 23.29 9.85978Z" fill="white"/>
</g>
<defs>
<clipPath id="clip0">
<rect width="29.24" height="29.24" fill="white" transform="scale(1.02599)"/>
</clipPath>
</defs>
</svg>
