<svg width="30" height="30" viewBox="0 0 30 30" fill="none" xmlns="http://www.w3.org/2000/svg">
<g clip-path="url(#clip0)">
<path d="M0 22.1512V7.84884C0 3.52941 3.52941 0 7.84884 0H22.1512C26.4706 0 30 3.52941 30 7.84884V22.1512C30 26.4706 26.4706 30 22.1512 30H7.84884C3.52941 30 0 26.4706 0 22.1512Z" fill="#5B00CC"/>
<path d="M20.4069 9.90082H18.6627V15.1539H20.4069V9.90082Z" fill="white"/>
<path d="M15.6053 9.90082H13.8509V15.1539H15.6053V9.90082Z" fill="white"/>
<path d="M5.97122 8.15663V22.1512H10.7831V24.7777H13.4097L16.0362 22.1512H19.976L25.2291 16.9083V4.658H7.28449L5.97122 8.15663ZM9.03893 6.40219H23.4746V16.026L20.4172 19.0834H15.595L12.9685 21.71V19.0834H9.03893V6.40219Z" fill="white"/>
<path d="M12.9787 21.71L15.6053 19.0834H20.4172L23.4746 16.026V6.40219H9.03892V19.0937H12.9787V21.71ZM18.6627 9.90082H20.4069V15.1539H18.6627V9.90082ZM13.8508 9.90082H15.6053V15.1539H13.8508V9.90082Z" fill="#5B00CC"/>
</g>
<defs>
<clipPath id="clip0">
<rect width="29.24" height="29.24" fill="white" transform="scale(1.02599)"/>
</clipPath>
</defs>
</svg>
